<svg xmlns="http://www.w3.org/2000/svg" xmlns:xlink="http://www.w3.org/1999/xlink" width="15.633" height="14.309" viewBox="0 0 15.633 14.309">
  <defs>
    <clipPath id="clip-path">
      <rect id="Rectangle_6200" data-name="Rectangle 6200" width="15.633" height="14.309" fill="#a8b4b9" stroke="#a8b4b9" stroke-width="0.3"/>
    </clipPath>
  </defs>
  <g id="log-out-icon" transform="translate(0 34)">
    <g id="Group_7404" data-name="Group 7404" transform="translate(0 -34)" clip-path="url(#clip-path)">
      <path id="Path_14262" data-name="Path 14262" d="M17.079,11.021H6.53a.174.174,0,0,1-.191-.148V6.962a.2.2,0,0,1,.383,0v3.764H16.888V.394H6.722V4.379a.2.2,0,0,1-.383,0V.246A.174.174,0,0,1,6.53.1H17.079a.174.174,0,0,1,.191.148V10.874a.174.174,0,0,1-.191.148" transform="translate(-1.709 1.596)" fill="#a8b4b9" stroke="#a8b4b9" stroke-width="0.3"/>
      <path id="Path_14263" data-name="Path 14263" d="M17.053,11.033H6.5a.239.239,0,0,1-.263-.2V6.919a.272.272,0,0,1,.526,0v3.708H16.789V.406H6.767v3.93a.272.272,0,0,1-.526,0V.2A.239.239,0,0,1,6.5,0H17.053a.24.24,0,0,1,.263.2V10.831a.24.24,0,0,1-.263.2M6.5,6.827a.109.109,0,0,0-.12.092v3.912a.109.109,0,0,0,.12.092H17.053a.109.109,0,0,0,.12-.092V.2a.109.109,0,0,0-.12-.092H6.5A.109.109,0,0,0,6.384.2V4.336a.124.124,0,0,0,.24,0V.35A.065.065,0,0,1,6.7.3H16.861a.065.065,0,0,1,.072.055V10.683a.065.065,0,0,1-.072.055H6.7a.065.065,0,0,1-.072-.055V6.919a.109.109,0,0,0-.12-.092" transform="translate(-1.682 1.638)" fill="#a8b4b9" stroke="#a8b4b9" stroke-width="0.3"/>
      <path id="Path_14264" data-name="Path 14264" d="M8.825,10.112H.624a.191.191,0,0,1,0-.383h8.2a.191.191,0,1,1,0,.383" transform="translate(-0.117 -2.623)" fill="#a8b4b9" stroke="#a8b4b9" stroke-width="0.3"/>
      <path id="Path_14265" data-name="Path 14265" d="M8.8,10.157H.6a.263.263,0,0,1,0-.526H8.8a.263.263,0,0,1,0,.526M.6,9.774a.12.12,0,0,0,0,.24H8.8a.12.12,0,0,0,0-.24Z" transform="translate(-0.09 -2.596)" fill="#a8b4b9" stroke="#a8b4b9" stroke-width="0.3"/>
      <path id="Path_14266" data-name="Path 14266" d="M2.281,11.007a.19.19,0,0,1-.111-.036L.178,9.552a.192.192,0,0,1,0-.312L2.17,7.821a.191.191,0,1,1,.222.312L.62,9.4l1.773,1.263a.191.191,0,0,1-.111.348" transform="translate(-0.026 -2.099)" fill="#a8b4b9" stroke="#a8b4b9" stroke-width="0.3"/>
      <path id="Path_14267" data-name="Path 14267" d="M2.254,11.053A.262.262,0,0,1,2.1,11L.11,9.585a.263.263,0,0,1,0-.429L2.1,7.736a.264.264,0,0,1,.367.062.263.263,0,0,1-.061.367L.717,9.37l1.691,1.205a.263.263,0,0,1-.153.478m0-3.222a.118.118,0,0,0-.069.022L.194,9.273a.12.12,0,0,0-.05.1.121.121,0,0,0,.05.1l1.992,1.419a.119.119,0,0,0,.187-.118.12.12,0,0,0-.048-.077L.551,9.428A.07.07,0,0,1,.522,9.37a.072.072,0,0,1,.029-.058L2.324,8.048a.119.119,0,0,0,.048-.077.12.12,0,0,0-.118-.14" transform="translate(0 -2.072)" fill="#a8b4b9" stroke="#a8b4b9" stroke-width="0.3"/>
    </g>
  </g>
</svg>
