<svg xmlns="http://www.w3.org/2000/svg" width="16" height="16" viewBox="0 0 16 16"><defs><style>.a{fill:#a8b4b9;}</style></defs><g transform="translate(-6.25 -6.25)"><path class="a" d="M12.536,18.821a6.286,6.286,0,1,1,6.286-6.286A6.293,6.293,0,0,1,12.536,18.821Zm0-11.429a5.143,5.143,0,1,0,5.143,5.143A5.149,5.149,0,0,0,12.536,7.393Z"/><path class="a" d="M60.171,61.885a1.7,1.7,0,0,1-1.215-.5l-4.034-4.034a.571.571,0,0,1,.808-.808l4.034,4.034a.6.6,0,0,0,.978-.407.565.565,0,0,0-.165-.407L56.544,55.73a.571.571,0,0,1,.808-.808l4.034,4.034a1.718,1.718,0,0,1-1.215,2.929Z" transform="translate(-39.635 -39.635)"/></g></svg>