<svg xmlns="http://www.w3.org/2000/svg" width="18.2" height="18.2" viewBox="0 0 18.2 18.2">
  <g id="settings" transform="translate(0.6 0.6)">
    <path id="Path_614" data-name="Path 614" d="M435.512,989.948l-1.306-2.174,1.568-1.568,2.175,1.306v0a5.876,5.876,0,0,1,1.33-.554l.613-2.461h2.217l.613,2.461a5.876,5.876,0,0,1,1.33.554v0l2.174-1.306,1.568,1.568-1.306,2.174h0a5.881,5.881,0,0,1,.554,1.331l2.461.613v2.217l-2.461.614a5.88,5.88,0,0,1-.554,1.33h0l1.306,2.174-1.568,1.568-2.174-1.306v0a5.873,5.873,0,0,1-1.33.554l-.613,2.461h-2.217l-.613-2.461a5.873,5.873,0,0,1-1.33-.554v0l-2.175,1.306-1.568-1.568,1.306-2.174h0a5.879,5.879,0,0,1-.554-1.33l-2.461-.614v-2.217l2.461-.613a5.88,5.88,0,0,1,.554-1.331Z" transform="translate(-432.5 -984.5)" fill="none" stroke="#a8b4b9" stroke-linecap="round" stroke-linejoin="round" stroke-width="1.2"/>
    <circle id="Ellipse_188" data-name="Ellipse 188" cx="3.5" cy="3.5" r="3.5" transform="translate(4.967 5.033)" fill="none" stroke="#a8b4b9" stroke-linecap="round" stroke-linejoin="round" stroke-width="1.2"/>
  </g>
</svg>
