<svg xmlns="http://www.w3.org/2000/svg" width="86.823" height="71.319" viewBox="0 0 86.823 71.319">
  <g id="users" transform="translate(-46.077 -1944)">
    <path id="Path_1328" data-name="Path 1328" d="M81.991,1964.011a10.752,10.752,0,1,1-21.491,0v-6.369a10.752,10.752,0,1,1,21.491,0Z" transform="translate(30.744)" fill="none" stroke="#343a40" stroke-linecap="round" stroke-linejoin="round" stroke-width="5"/>
    <ellipse id="Ellipse_389" data-name="Ellipse 389" cx="9.378" cy="8.708" rx="9.378" ry="8.708" transform="translate(63.875 1951.71)" fill="none" stroke="#343a40" stroke-linecap="round" stroke-linejoin="round" stroke-width="5"/>
    <path id="Path_1329" data-name="Path 1329" d="M82.35,1960.583a21.49,21.49,0,0,0-33.694,13.289,3.544,3.544,0,0,0,3.546,4.119H69.753" transform="translate(0 24.084)" fill="none" stroke="#343a40" stroke-linecap="round" stroke-linejoin="round" stroke-width="5"/>
    <path id="Path_1330" data-name="Path 1330" d="M83.973,1957.5h0a28.661,28.661,0,0,0-28.368,24.581,3.6,3.6,0,0,0,3.578,4.073h49.579a3.6,3.6,0,0,0,3.578-4.073A28.661,28.661,0,0,0,83.973,1957.5Z" transform="translate(18.016 26.665)" fill="none" stroke="#343a40" stroke-linecap="round" stroke-linejoin="round" stroke-width="5"/>
  </g>
</svg>
